<svg width="31" height="30" viewBox="0 0 31 30" fill="none" xmlns="http://www.w3.org/2000/svg">
<path d="M15.4995 0.3125C7.21661 0.3125 0.5 7.05427 0.5 15.373C0.5 22.0257 4.79726 27.6706 10.76 29.6617C11.5095 29.8006 11.7829 29.3356 11.7829 28.9359C11.7829 28.5788 11.7698 27.6319 11.7626 26.3748C7.58919 27.2859 6.70903 24.356 6.70903 24.356C6.02774 22.616 5.04452 22.154 5.04452 22.154C3.68194 21.2191 5.1471 21.237 5.1471 21.237C6.65194 21.343 7.44403 22.7898 7.44403 22.7898C8.78339 25.091 10.956 24.4257 11.8105 24.0401C11.9455 23.0675 12.334 22.4031 12.7623 22.0272C9.43226 21.6464 5.93097 20.3554 5.93097 14.5852C5.93097 12.9415 6.515 11.5969 7.47452 10.543C7.31919 10.1622 6.80484 8.63169 7.62064 6.55879C7.62064 6.55879 8.88064 6.15427 11.7456 8.10234C12.9423 7.76847 14.2255 7.60153 15.5015 7.59476C16.7745 7.60153 18.0587 7.76798 19.2573 8.10234C22.1198 6.15427 23.3779 6.55879 23.3779 6.55879C24.1956 8.63169 23.6813 10.1622 23.5265 10.543C24.4884 11.5969 25.069 12.941 25.069 14.5852C25.069 20.3699 21.5619 21.6425 18.2203 22.016C18.7589 22.481 19.2384 23.3994 19.2384 24.8051C19.2384 26.819 19.2205 28.4419 19.2205 28.9359C19.2205 29.3394 19.491 29.8083 20.2516 29.6598C26.2066 27.6648 30.5 22.0238 30.5 15.373C30.5 7.05427 23.7834 0.3125 15.4995 0.3125Z" fill="white"/>
</svg>
