<svg width="30" height="30" viewBox="0 0 30 30" fill="none" xmlns="http://www.w3.org/2000/svg">
<g clip-path="url(#clip0_518_477)">
<path d="M4.40904 24.1866L4.83954 23.1821L4.22665 22.2772C2.76895 20.1251 2 17.6184 2 15C2 11.5238 3.34949 8.26561 5.80756 5.80759C8.26567 3.34953 11.5238 2 15 2C18.4762 2 21.7344 3.34954 24.1924 5.80756C26.6504 8.26569 28 11.5238 28 15C28 18.4762 26.6504 21.7343 24.1924 24.1924C21.7344 26.6505 18.4762 28 15 28C12.2899 28 9.71296 27.1818 7.51472 25.6292L6.55827 24.9537L5.50107 25.4571L3.44496 26.4362L4.40904 24.1866ZM0.500026 29.5001L0.500008 29.5L0.499976 29.5L0.500026 29.5001Z" stroke="white" stroke-width="4"/>
<path d="M22.9916 20.0764L22.542 17.6411C22.5048 17.4401 22.349 17.2818 22.1484 17.2417L18.6129 16.5346C18.4487 16.5018 18.2795 16.5532 18.1612 16.6714L16.7249 18.1077C14.3048 17.0233 12.9616 15.6774 11.7798 13.1533L13.2115 11.7215C13.3298 11.6034 13.381 11.4338 13.3483 11.2699L12.6412 7.73435C12.601 7.53378 12.4428 7.37786 12.2416 7.34071L9.8064 6.89112C9.73972 6.87882 9.67104 6.88017 9.60483 6.89523C8.96182 7.04136 8.37512 7.36532 7.90819 7.83237C7.09954 8.64103 6.79052 9.82093 7.01452 11.2447C7.39057 13.6354 8.56192 16.9625 10.7229 19.132L10.7523 19.1613C12.9203 21.3208 16.2473 22.4921 18.638 22.8682C18.9392 22.9156 19.2293 22.9391 19.5074 22.9391C20.5442 22.9391 21.4127 22.6121 22.0504 21.9746C22.5174 21.5075 22.8414 20.9208 22.9875 20.2779C23.0026 20.2117 23.004 20.1431 22.9916 20.0764Z" fill="white"/>
</g>
<defs>
<clipPath id="clip0_518_477">
<rect width="30" height="30" fill="white"/>
</clipPath>
</defs>
</svg>
